<?xml version="1.0" encoding="UTF-8"?>
<svg id="Ebene_2" data-name="Ebene 2" xmlns="http://www.w3.org/2000/svg" viewBox="0 0 13.74 13.74">
  <defs>
    <style>
      .cls-1 {
        fill: none;
      }
    </style>
  </defs>
  <g id="Ebene_1-2" data-name="Ebene 1">
    <g>
      <path d="M9.01,3.31H4.63c-.83,0-1.5,.67-1.5,1.5v4.03c0,.83,.67,1.5,1.5,1.5h4.38c.83,0,1.5-.67,1.5-1.5V4.8c0-.83-.67-1.5-1.5-1.5Zm-2.19,5.24c-.95,0-1.73-.77-1.73-1.73s.77-1.73,1.73-1.73,1.73,.77,1.73,1.73-.77,1.73-1.73,1.73Zm2.27-3.41c-.25,0-.45-.2-.45-.45s.2-.45,.45-.45,.45,.2,.45,.45-.2,.45-.45,.45Z"/>
      <rect class="cls-1" width="13.74" height="13.74"/>
    </g>
  </g>
</svg>