<?xml version="1.0" encoding="utf-8"?>
<!-- Generator: Adobe Illustrator 27.0.0, SVG Export Plug-In . SVG Version: 6.00 Build 0)  -->
<svg version="1.1" id="Ebene_1" xmlns="http://www.w3.org/2000/svg" xmlns:xlink="http://www.w3.org/1999/xlink" x="0px" y="0px"
	 viewBox="0 0 246.72 161.52" style="enable-background:new 0 0 246.72 161.52;" xml:space="preserve">
<g>
	<path d="M87.11,48.06c0.47-0.57,0.9-1.16,1.4-1.7c6.97-7.44,15.49-12.14,25.47-14.16c27.59-5.57,53.8,13.78,56.61,41.77
		c2.34,23.3-12.94,44.68-36.16,50.57c-6.13,1.55-12.33,1.73-18.58,0.84c-0.85-0.12-1.22-0.43-1.27-1.34
		c-0.19-2.94-0.47-5.88-0.73-8.98c0.59,0,1.06-0.02,1.52,0c19.73,0.88,37.12-13.13,39.88-32.79c2.86-20.37-10.39-39.24-30.61-43.87
		c-8-1.83-15.78-1.03-23.43,1.86c-4.83,1.83-9.37,4.09-13.26,7.55c-0.19,0.17-0.44,0.27-0.66,0.41
		C87.24,48.18,87.17,48.12,87.11,48.06z"/>
	<path d="M104.41,122.1c-10.57-4.73-18.44-11.93-23.53-22c-3.2-6.32-5.37-12.94-4.73-20.14c0.11-0.03,0.22-0.06,0.33-0.08
		c0.08,0.2,0.17,0.4,0.22,0.6c1.86,7.77,5.09,14.88,10.33,20.98c4.58,5.33,10.25,9.11,16.88,11.43c0.91,0.32,1.25,0.67,1.13,1.69
		C104.75,116.98,104.62,119.41,104.41,122.1z"/>
	<path d="M127.51,55.19c0.13,0.93,0.3,1.85,0.38,2.78c0.83,9.55,1.64,19.1,2.45,28.66c0.31,3.7,0.63,7.4,0.91,11.11
		c0.13,1.77,0.09,3.53-1.02,5.06c-1.53,2.13-4.39,2.04-5.82-0.16c-0.9-1.38-1.07-2.93-0.95-4.5c0.38-5.14,0.81-10.28,1.25-15.41
		c0.75-8.72,1.53-17.44,2.3-26.15c0.04-0.46,0.13-0.92,0.2-1.38C127.31,55.19,127.41,55.19,127.51,55.19z"/>
	<path d="M109.55,84.55c0.12,0.88,0.29,1.76,0.36,2.64c1.09,13.1,2.18,26.2,3.24,39.3c0.1,1.3,0.09,2.64-0.12,3.93
		c-0.34,2.07-1.76,3.32-3.49,3.34c-1.95,0.03-3.45-1.1-3.78-3.29c-0.26-1.71-0.25-3.5-0.1-5.24c1.09-13.1,2.24-26.19,3.37-39.28
		c0.04-0.46,0.14-0.92,0.21-1.38C109.34,84.56,109.44,84.56,109.55,84.55z"/>
</g>
</svg>
